<svg viewBox="0 0 270 480" preserveAspectRatio="xMidYMid meet" width="270" height="480" xmlns="http://www.w3.org/2000/svg" xmlns:svg="http://www.w3.org/2000/svg">
    <!-- Created with SVG-edit - http://svg-edit.googlecode.com/ -->
    <rect height="480" width="45" y="0" x="90" stroke-width="0" stroke-opacity="0" stroke="#000000" fill="#ff0000" id="svg_1" />
    <rect height="480" width="45" y="0" x="180" stroke-width="0" stroke-opacity="0" stroke="#000000" fill="#ff0000" id="svg_2" />
    <rect height="480" width="45" y="0" x="135" stroke-width="0" stroke-opacity="0" stroke="#000000" fill="#000000" id="svg_3" />
    <circle r="90" cy="240" cx="157.5" stroke-width="0" stroke-dasharray="null" stroke="#000000" fill="#ffffff" id="svg_5" />
    <circle r="85" cy="240" cx="157.5" stroke-width="0" stroke-dasharray="null" stroke="#000000" fill="#000000" id="svg_6" />
    <path d="m113.648987,182.5l1.882545,8.808197l8.766449,1.801163l-8.766449,1.801163l-1.882545,8.387466l-1.882568,-8.387466l-8.766418,-1.801163l8.766418,-1.801163l1.882568,-8.387466l1.882545,8.387466" stroke-width="0" stroke-dasharray="null" stroke="#000000" fill="#ffffff" id="svg_9" />
    <path d="m201.648987,182.5l1.882538,8.808197l8.766449,1.801163l-8.766449,1.801163l-1.882538,8.387466l-1.882568,-8.387466l-8.766418,-1.801163l8.766418,-1.801163l1.882568,-8.387466l1.882538,8.387466" stroke-width="0" stroke-dasharray="null" stroke="#000000" fill="#ffffff" id="svg_10" />
    <path d="m113.5,268.351013l1.882538,8.808197l8.766449,1.801147l-8.766449,1.801178l-1.882538,8.387451l-1.882568,-8.387451l-8.766418,-1.801178l8.766418,-1.801147l1.882568,-8.387482l1.882538,8.387482" stroke-width="0" stroke-dasharray="null" stroke="#000000" fill="#ffffff" id="svg_7" />
    <path d="m201.5,268.351013l1.882538,8.808197l8.766449,1.801147l-8.766449,1.801178l-1.882538,8.387451l-1.882568,-8.387451l-8.766418,-1.801178l8.766418,-1.801147l1.882568,-8.387482l1.882538,8.387482" stroke-width="0" stroke-dasharray="null" stroke="#000000" fill="#ffffff" id="svg_8" />
    <path d="m92.5,224.851013l1.882538,8.808197l8.766449,1.801147l-8.766449,1.801178l-1.882538,8.387451l-1.882568,-8.387451l-8.766418,-1.801178l8.766418,-1.801147l1.882568,-8.387482l1.882538,8.387482" stroke-width="0" stroke-dasharray="null" stroke="#000000" fill="#ffffff" id="svg_11" />
    <path d="m225,224.851013l1.882538,8.808197l8.766449,1.801147l-8.766449,1.801178l-1.882538,8.387451l-1.882568,-8.387451l-8.766418,-1.801178l8.766418,-1.801147l1.882568,-8.387482l1.882538,8.387482" stroke-width="0" stroke-dasharray="null" stroke="#000000" fill="#ffffff" id="svg_12" />
    <polygon strokeWidth="0" strokecolor="#000000" orient="point" r2="15.995756" r="47.987267" point="7" shape="star" cy="400" cx="335.5" points="157.5,192.513 164.44,222.592 195.018,208.699 173.095,232.314 204.284,245.069 170.006,244.437 178.321,274.235 157.5,249.832 136.679,274.235 144.994,244.437 110.716,245.069 141.905,232.314 119.982,208.699 150.56,222.592 157.5,192.513 164.44,222.592" stroke-width="0" stroke="#000000" fill="#ffffff" id="svg_21" />
    <polygon edge="48.845562" sides="3" strokeWidth="0" strokecolor="#000000" orient="x" shape="regularPoly" cy="104" cx="338.5" points="169.201,164.5 146.899,178.923 146.899,150.077 169.201,164.5" transform="rotate(90 158.05 164.5)" stroke-width="0" stroke="#000000" fill="#ffffff" id="svg_22" />
    <polygon edge="48.845562" sides="3" strokeWidth="0" strokecolor="#000000" orient="x" shape="regularPoly" cy="104" cx="338.5" points="169.151,314.75 146.849,329.173 146.849,300.327 169.151,314.75" transform="rotate(-90 158 314.75)" stroke-width="0" stroke="#000000" fill="#ffffff" id="svg_26" />
</svg>